<?xml version="1.0"?>
<svg xmlns="http://www.w3.org/2000/svg" id="Layer_1" height="512px" viewBox="0 0 512 512" width="512px" data-name="Layer 1" class=""><g><path d="m426.562 311h-341.124a75.5 75.5 0 1 0 0 151h341.124a75.5 75.5 0 1 0 0-151zm0 139h-341.124a63.5 63.5 0 1 1 0-127h341.124a63.5 63.5 0 1 1 0 127z" data-original="#000000" class="active-path" data-old_color="#000000" fill="#FFFFFF"/><path d="m203.838 342.934a43.25 43.25 0 1 0 43.249 43.25 43.3 43.3 0 0 0 -43.249-43.25zm0 74.5a31.25 31.25 0 1 1 31.249-31.249 31.284 31.284 0 0 1 -31.249 31.248z" data-original="#000000" class="active-path" data-old_color="#000000" fill="#FFFFFF"/><path d="m99.513 342.934a43.25 43.25 0 1 0 43.25 43.25 43.3 43.3 0 0 0 -43.25-43.25zm0 74.5a31.25 31.25 0 1 1 31.25-31.249 31.285 31.285 0 0 1 -31.25 31.248z" data-original="#000000" class="active-path" data-old_color="#000000" fill="#FFFFFF"/><path d="m308.162 342.934a43.25 43.25 0 1 0 43.25 43.25 43.3 43.3 0 0 0 -43.25-43.25zm0 74.5a31.25 31.25 0 1 1 31.25-31.249 31.284 31.284 0 0 1 -31.25 31.248z" data-original="#000000" class="active-path" data-old_color="#000000" fill="#FFFFFF"/><path d="m412.487 342.934a43.25 43.25 0 1 0 43.25 43.25 43.3 43.3 0 0 0 -43.25-43.25zm0 74.5a31.25 31.25 0 1 1 31.25-31.249 31.284 31.284 0 0 1 -31.25 31.248z" data-original="#000000" class="active-path" data-old_color="#000000" fill="#FFFFFF"/><path d="m148 232.505v46.022a22.609 22.609 0 0 0 22.476 22.473h171.048a22.609 22.609 0 0 0 22.476-22.473v-46.022c12-2.949 21.846-14.2 21.846-27.59s-9.846-24.642-21.846-27.591v-27.385c0-12.308-10.168-21.939-22.476-21.939h-19.524v-21.392a5.466 5.466 0 0 0 -5.747-5.608h-54.253v-16.992a17.465 17.465 0 1 0 -12 .039v16.953h-54.253a5.466 5.466 0 0 0 -5.747 5.608v21.392h-19.524c-12.308 0-22.476 9.631-22.476 21.939v27.385c-12 2.949-21.846 14.2-21.846 27.591s9.846 24.641 21.846 27.59zm225.846-27.59a16.041 16.041 0 0 1 -9.846 14.994v-29.989a16.04 16.04 0 0 1 9.846 14.995zm-117.9-142.731a5.46 5.46 0 0 1 2.475 10.329 5.96 5.96 0 0 0 -4.9.026 5.459 5.459 0 0 1 2.421-10.355zm-53.946 50.816h108v15h-108zm-42 36.939c0-5.691 4.785-9.939 10.476-9.939h171.048c5.691 0 10.476 4.248 10.476 9.939v128.588a10.6 10.6 0 0 1 -10.476 10.473h-171.048a10.6 10.6 0 0 1 -10.476-10.473zm-12 39.981v29.989a16.341 16.341 0 0 1 0-29.989z" data-original="#000000" class="active-path" data-old_color="#000000" fill="#FFFFFF"/><path d="m312 224a6 6 0 0 0 -6-6h-101a6 6 0 0 0 -6 6v44a6 6 0 0 0 6 6h101a6 6 0 0 0 6-6zm-62 39h-14v-33h14zm12-33h14v33h-14zm-51 0h13v33h-13zm90 33h-13v-33h13z" data-original="#000000" class="active-path" data-old_color="#000000" fill="#FFFFFF"/><path d="m236 170a6 6 0 0 0 -6-6h-29a6 6 0 0 0 -6 6v29a6 6 0 0 0 6 6h29a6 6 0 0 0 6-6zm-29 6h17v17h-17z" data-original="#000000" class="active-path" data-old_color="#000000" fill="#FFFFFF"/><path d="m317 170a6 6 0 0 0 -6-6h-29a6 6 0 0 0 -6 6v29a6 6 0 0 0 6 6h29a6 6 0 0 0 6-6zm-29 6h17v17h-17z" data-original="#000000" class="active-path" data-old_color="#000000" fill="#FFFFFF"/></g> </svg>
